<svg xmlns="http://www.w3.org/2000/svg" viewBox="0 0 240 157" role="img" aria-label="BriefHub bowler hat">
  <title>BriefHub bowler hat</title>
  <path d="M136.4,146.4 C135.1,146.5 133.8,146.6 132.5,146.6 C131.2,146.6 129.9,146.6 128.5,146.6 C127.2,146.6 125.9,146.6 124.6,146.6 C123.3,146.6 122.0,146.6 120.7,146.6 C119.4,146.6 118.1,146.6 116.8,146.6 C115.5,146.6 114.2,146.6 112.9,146.6 C111.6,146.6 110.3,146.6 109.0,146.6 C107.7,146.6 106.4,146.5 105.1,146.4 C103.8,146.3 102.5,146.0 101.2,146.0 C99.9,145.9 98.6,146.0 97.3,145.9 C96.0,145.9 94.7,145.8 93.4,145.6 C92.1,145.5 90.8,145.4 89.5,145.2 C88.2,145.1 86.9,144.9 85.6,144.8 C84.3,144.6 83.0,144.5 81.7,144.4 C80.4,144.2 79.1,144.0 77.8,143.9 C76.5,143.7 75.2,143.5 73.9,143.3 C72.6,143.2 71.3,142.9 70.1,142.7 C68.8,142.5 67.5,142.4 66.2,142.1 C64.9,141.8 63.7,141.5 62.4,141.2 C61.1,140.9 59.8,140.7 58.6,140.4 C57.3,140.1 56.0,139.8 54.8,139.5 C53.5,139.2 52.2,138.8 51.0,138.4 C49.7,138.1 48.5,137.7 47.3,137.3 C46.0,136.9 44.8,136.4 43.5,136.0 C42.3,135.6 41.1,135.2 39.8,134.8 C38.6,134.4 37.4,133.9 36.1,133.5 C34.9,133.0 33.7,132.5 32.6,131.9 C31.4,131.4 30.2,130.9 29.0,130.3 C27.8,129.8 26.6,129.3 25.4,128.7 C24.3,128.1 23.1,127.4 22.0,126.8 C20.8,126.2 19.6,125.7 18.5,125.0 C17.4,124.3 16.3,123.6 15.3,122.8 C14.3,121.9 13.3,121.0 12.5,120.0 C11.7,119.0 11.0,117.9 10.6,116.7 C10.2,115.5 9.9,114.1 10.0,112.8 C10.1,111.5 10.3,110.1 10.9,109.0 C11.5,108.0 12.6,106.9 13.7,106.5 C14.9,106.1 16.3,106.4 17.6,106.5 C18.9,106.6 20.2,107.0 21.4,107.3 C22.7,107.6 24.0,107.9 25.2,108.3 C26.5,108.7 27.7,109.1 29.0,109.5 C30.2,109.8 31.5,110.2 32.7,110.5 C34.0,110.9 35.2,111.3 36.5,111.7 C37.7,112.1 39.0,112.4 40.2,112.7 C41.5,112.9 43.1,113.7 44.1,113.2 C45.0,112.8 45.5,111.2 45.8,110.0 C46.2,108.8 46.1,107.4 46.2,106.1 C46.4,104.8 46.6,103.5 46.7,102.2 C46.8,100.9 46.8,99.6 46.8,98.3 C46.8,97.0 46.7,95.7 46.8,94.4 C46.8,93.1 47.0,91.8 47.1,90.5 C47.2,89.2 47.4,87.9 47.5,86.6 C47.5,85.3 47.5,84.0 47.5,82.7 C47.5,81.3 47.5,80.0 47.5,78.7 C47.5,77.4 47.5,76.1 47.5,74.8 C47.5,73.5 47.4,72.2 47.5,70.9 C47.5,69.6 47.5,68.3 47.6,67.0 C47.7,65.7 48.0,64.4 48.1,63.1 C48.2,61.8 48.1,60.5 48.1,59.2 C48.2,57.9 48.4,56.6 48.5,55.3 C48.6,54.0 48.7,52.7 48.9,51.4 C49.1,50.1 49.2,48.8 49.5,47.5 C49.7,46.2 49.9,45.0 50.3,43.7 C50.6,42.5 51.1,41.2 51.6,40.0 C52.2,38.9 52.8,37.7 53.4,36.6 C54.0,35.4 54.7,34.3 55.4,33.2 C56.2,32.1 57.0,31.1 57.8,30.1 C58.7,29.1 59.6,28.2 60.6,27.3 C61.5,26.5 62.5,25.6 63.5,24.8 C64.5,23.9 65.6,23.1 66.6,22.4 C67.7,21.7 68.9,21.0 70.0,20.4 C71.1,19.7 72.2,19.1 73.4,18.5 C74.5,17.8 75.7,17.3 76.9,16.7 C78.1,16.2 79.3,15.6 80.5,15.2 C81.7,14.7 83.0,14.4 84.2,14.0 C85.5,13.7 86.8,13.4 88.0,13.2 C89.3,12.9 90.6,12.6 91.9,12.4 C93.2,12.2 94.4,12.0 95.7,11.7 C97.0,11.5 98.3,11.4 99.6,11.2 C100.9,11.0 102.2,10.8 103.5,10.7 C104.8,10.6 106.1,10.6 107.4,10.5 C108.7,10.4 110.0,10.1 111.3,10.1 C112.6,10.0 113.9,10.0 115.2,10.0 C116.5,10.0 117.8,10.0 119.1,10.0 C120.4,10.0 121.7,10.0 123.0,10.0 C124.3,10.0 125.7,10.0 127.0,10.0 C128.3,10.0 129.6,10.2 130.9,10.3 C132.2,10.4 133.5,10.6 134.8,10.7 C136.1,10.8 137.4,10.8 138.7,10.9 C139.9,11.1 141.2,11.3 142.5,11.5 C143.8,11.7 145.1,11.9 146.4,12.1 C147.7,12.4 148.9,12.6 150.2,12.9 C151.5,13.1 152.8,13.3 154.1,13.6 C155.3,13.9 156.6,14.2 157.9,14.6 C159.1,14.9 160.3,15.4 161.5,15.9 C162.7,16.4 163.9,17.0 165.1,17.6 C166.2,18.2 167.4,18.7 168.5,19.4 C169.7,20.0 170.8,20.7 171.9,21.4 C173.0,22.1 174.1,22.8 175.1,23.6 C176.2,24.3 177.3,25.1 178.2,26.0 C179.2,26.8 180.1,27.8 181.0,28.7 C181.9,29.6 182.9,30.5 183.7,31.5 C184.6,32.5 185.3,33.6 186.0,34.7 C186.6,35.9 187.2,37.0 187.8,38.2 C188.4,39.4 189.0,40.5 189.5,41.7 C189.9,42.9 190.2,44.2 190.5,45.5 C190.8,46.8 191.1,48.0 191.2,49.3 C191.4,50.6 191.5,51.9 191.6,53.2 C191.8,54.5 192.0,55.8 192.1,57.1 C192.2,58.4 192.3,59.7 192.4,61.0 C192.5,62.3 192.7,63.6 192.8,64.9 C192.8,66.2 192.8,67.5 192.8,68.8 C192.8,70.1 192.8,71.4 192.8,72.7 C192.8,74.0 192.8,75.4 192.8,76.7 C192.8,78.0 192.7,79.3 192.8,80.6 C192.8,81.9 193.1,83.2 193.2,84.5 C193.3,85.8 193.4,87.1 193.4,88.4 C193.5,89.7 193.4,91.0 193.4,92.3 C193.4,93.6 193.4,94.9 193.4,96.2 C193.4,97.5 193.4,98.8 193.4,100.1 C193.5,101.4 193.8,102.7 193.9,104.0 C194.0,105.3 194.0,106.6 194.2,107.9 C194.4,109.2 194.3,110.9 194.9,111.8 C195.5,112.6 196.9,113.1 198.0,113.2 C199.2,113.2 200.5,112.5 201.8,112.2 C203.1,111.8 204.3,111.4 205.5,111.0 C206.8,110.6 208.0,110.2 209.2,109.8 C210.5,109.3 211.7,108.9 212.9,108.5 C214.2,108.1 215.5,107.8 216.7,107.5 C218.0,107.2 219.3,106.9 220.6,106.7 C221.8,106.6 223.2,106.4 224.5,106.6 C225.7,106.8 227.2,107.2 228.1,107.9 C229.0,108.7 229.7,110.0 230.0,111.2 C230.3,112.4 230.3,113.9 230.0,115.1 C229.7,116.3 228.9,117.5 228.2,118.6 C227.5,119.6 226.5,120.6 225.6,121.4 C224.6,122.3 223.5,123.0 222.4,123.8 C221.4,124.6 220.3,125.3 219.2,126.0 C218.1,126.6 216.9,127.2 215.7,127.8 C214.5,128.4 213.4,129.0 212.2,129.5 C211.0,130.1 209.8,130.5 208.6,131.1 C207.4,131.6 206.2,132.1 205.0,132.6 C203.8,133.1 202.6,133.6 201.4,134.0 C200.2,134.5 199.0,135.0 197.7,135.4 C196.5,135.9 195.3,136.3 194.0,136.7 C192.8,137.1 191.6,137.5 190.3,137.9 C189.1,138.3 187.8,138.7 186.6,139.1 C185.3,139.5 184.1,139.8 182.8,140.2 C181.6,140.5 180.3,140.8 179.0,141.2 C177.8,141.5 176.5,141.8 175.2,142.1 C173.9,142.3 172.7,142.6 171.4,142.8 C170.1,143.0 168.8,143.2 167.5,143.4 C166.2,143.6 164.9,143.8 163.6,143.9 C162.3,144.1 161.0,144.3 159.8,144.5 C158.5,144.6 157.2,144.7 155.9,144.9 C154.6,145.0 153.3,145.2 152.0,145.3 C150.7,145.4 149.4,145.4 148.1,145.5 C146.8,145.6 145.5,145.9 144.2,145.9 C142.9,146.0 141.6,145.9 140.3,145.9 C139.0,146.0 137.7,146.3 136.4,146.4 Z" fill="#6b1d2c"/>
</svg>
